<svg id="svg" xmlns="http://www.w3.org/2000/svg" xmlns:xlink="http://www.w3.org/1999/xlink" width="400"
     height="391.94968553459125" viewBox="0, 0, 400,391.94968553459125">
    <g id="svg">
        <path id="path0"
              d="M304.585 95.004 C 292.681 106.923,282.440 117.263,281.828 117.981 L 280.714 119.288 279.925 118.442 C 279.492 117.976,279.038 117.694,278.917 117.815 C 278.796 117.936,279.018 118.388,279.410 118.821 C 280.083 119.565,280.085 119.649,279.450 120.350 C 278.805 121.062,278.933 121.266,282.583 125.350 C 293.242 137.278,303.403 154.717,306.029 165.588 L 306.289 166.667 268.733 166.673 C 247.548 166.676,231.409 166.826,231.710 167.017 C 232.226 167.343,202.422 197.647,201.585 197.647 C 201.404 197.647,200.908 198.315,200.482 199.131 L 199.708 200.616 210.540 203.506 C 216.498 205.095,223.578 206.988,226.275 207.711 C 228.971 208.435,233.471 209.635,236.275 210.380 C 239.078 211.124,244.725 212.637,248.824 213.743 C 252.922 214.848,260.863 216.982,266.471 218.486 C 272.078 219.991,278.255 221.647,280.196 222.168 C 282.137 222.689,286.020 223.727,288.824 224.474 C 291.627 225.222,295.951 226.381,298.431 227.050 C 306.649 229.269,310.370 230.267,312.353 230.786 C 313.431 231.068,317.389 232.128,321.148 233.142 L 327.983 234.984 339.776 234.801 C 349.163 234.655,352.040 234.485,353.882 233.966 C 369.411 229.585,379.014 217.684,379.865 201.765 C 381.345 174.073,371.150 136.182,354.911 109.020 C 346.695 95.277,329.405 73.333,326.792 73.333 C 326.483 73.333,316.489 83.085,304.585 95.004 M267.059 110.588 C 267.814 111.224,268.588 111.748,268.779 111.754 C 268.971 111.760,268.461 111.235,267.647 110.588 C 265.739 109.072,265.257 109.072,267.059 110.588 "
              stroke="none" fill="#000000" fill-rule="evenodd"></path>
        <path id="path1"
              d="M190.784 20.279 C 188.196 20.347,185.814 20.509,185.490 20.640 C 185.167 20.771,183.402 20.949,181.569 21.035 C 179.735 21.122,177.353 21.360,176.275 21.565 C 175.196 21.770,173.211 22.053,171.863 22.196 C 170.515 22.338,169.412 22.570,169.412 22.712 C 169.412 22.854,168.706 22.999,167.843 23.033 C 164.738 23.157,154.407 25.616,155.312 26.016 C 155.626 26.154,155.461 26.161,154.947 26.031 C 154.038 25.803,151.216 26.613,142.157 29.702 C 140.000 30.438,137.736 31.291,137.125 31.598 C 136.514 31.905,135.831 32.157,135.605 32.157 C 135.380 32.157,134.203 32.580,132.990 33.097 C 131.777 33.615,129.237 34.681,127.346 35.466 C 123.396 37.107,119.872 38.798,117.059 40.404 C 115.980 41.020,114.657 41.727,114.118 41.976 C 111.596 43.141,108.240 44.981,106.320 46.251 C 105.158 47.019,103.923 47.824,103.575 48.039 C 103.226 48.255,101.830 49.181,100.471 50.098 C 99.113 51.015,97.901 51.765,97.778 51.765 C 97.545 51.765,93.229 54.963,90.196 57.384 C 89.225 58.159,87.677 59.373,86.754 60.083 C 78.655 66.312,63.012 81.951,58.846 87.984 C 58.527 88.446,57.377 89.903,56.290 91.222 C 55.203 92.541,53.696 94.527,52.941 95.636 C 52.186 96.745,51.022 98.401,50.353 99.316 C 49.685 100.231,48.827 101.582,48.448 102.317 C 48.069 103.052,46.984 104.763,46.036 106.118 C 45.089 107.474,44.314 108.708,44.314 108.862 C 44.314 109.016,43.914 109.688,43.426 110.355 C 42.938 111.023,41.511 113.598,40.255 116.078 C 38.999 118.559,37.816 120.853,37.627 121.176 C 36.849 122.505,34.118 128.422,34.118 128.779 C 34.118 128.991,33.780 129.882,33.367 130.759 C 31.671 134.357,29.385 140.518,26.900 148.180 C 25.114 153.688,25.286 154.248,28.899 154.696 C 30.152 154.852,31.618 155.205,32.157 155.481 C 33.192 156.011,35.034 156.537,39.216 157.498 C 40.618 157.820,42.559 158.354,43.529 158.685 C 44.500 159.015,46.211 159.430,47.331 159.606 C 48.451 159.782,49.540 160.033,49.750 160.163 C 50.375 160.549,56.817 162.353,57.555 162.349 C 57.929 162.347,59.294 162.689,60.588 163.110 C 61.882 163.531,64.088 164.148,65.490 164.481 C 70.288 165.620,71.569 165.974,72.157 166.323 C 73.083 166.872,73.343 166.937,76.667 167.441 C 78.392 167.703,80.083 168.165,80.423 168.468 C 80.764 168.772,81.518 169.020,82.099 169.020 C 82.681 169.020,84.111 169.355,85.278 169.765 C 90.476 171.592,90.862 171.450,92.085 167.255 C 97.134 149.943,110.636 128.690,123.619 117.620 C 125.187 116.283,127.206 114.550,128.105 113.771 C 130.529 111.667,138.191 106.176,141.115 104.446 C 143.916 102.789,156.735 96.471,157.295 96.471 C 157.608 96.471,158.255 96.197,158.732 95.863 C 159.812 95.106,167.053 92.802,170.980 91.965 C 185.605 88.849,189.362 88.469,202.195 88.806 C 216.358 89.178,216.417 89.181,216.214 89.510 C 216.114 89.672,216.494 89.804,217.059 89.804 C 218.070 89.804,225.557 91.369,228.235 92.141 C 234.829 94.040,237.153 94.806,240.335 96.123 C 242.352 96.959,244.188 97.528,244.415 97.388 C 244.673 97.229,244.708 97.326,244.509 97.648 C 244.270 98.035,244.411 98.105,245.076 97.931 C 245.562 97.804,245.853 97.807,245.722 97.938 C 245.592 98.069,247.912 99.435,250.880 100.975 C 253.847 102.515,257.068 104.278,258.037 104.894 C 259.006 105.509,260.013 106.013,260.275 106.013 C 260.536 106.013,260.640 106.190,260.507 106.407 C 260.360 106.643,260.531 106.697,260.936 106.542 C 261.307 106.400,261.521 106.427,261.412 106.602 C 261.304 106.777,262.452 107.790,263.964 108.853 C 265.475 109.915,267.775 111.624,269.073 112.651 C 270.372 113.678,271.624 114.401,271.856 114.257 C 272.088 114.114,272.167 114.177,272.031 114.397 C 271.716 114.905,273.090 116.181,273.526 115.785 C 273.705 115.623,273.740 115.685,273.604 115.924 C 273.326 116.412,276.449 119.091,277.059 118.889 C 277.275 118.817,277.318 118.891,277.156 119.053 C 276.797 119.413,277.973 120.784,278.640 120.784 C 279.706 120.784,280.149 119.639,279.403 118.814 C 279.015 118.385,278.796 117.936,278.917 117.815 C 279.038 117.694,279.492 117.976,279.925 118.442 L 280.714 119.288 281.828 117.981 C 284.165 115.240,326.251 73.333,326.667 73.333 C 326.908 73.333,326.994 73.154,326.859 72.935 C 326.723 72.716,326.421 72.655,326.187 72.799 C 325.953 72.944,325.868 72.889,325.999 72.678 C 326.317 72.163,321.063 66.982,320.378 67.135 C 320.082 67.201,319.829 67.078,319.816 66.863 C 319.766 66.050,319.167 65.532,318.517 65.740 C 318.041 65.893,317.988 65.852,318.337 65.600 C 318.939 65.165,315.047 61.825,314.403 62.223 C 314.179 62.361,314.112 62.287,314.253 62.059 C 314.567 61.551,310.081 57.850,309.121 57.825 C 308.742 57.815,308.471 57.607,308.520 57.362 C 308.639 56.770,303.635 53.222,303.125 53.537 C 302.905 53.673,302.774 53.638,302.833 53.461 C 302.893 53.283,302.765 53.069,302.549 52.987 C 302.333 52.904,301.924 52.504,301.640 52.098 C 301.355 51.692,300.958 51.461,300.757 51.585 C 300.557 51.709,300.392 51.648,300.392 51.448 C 300.392 50.742,295.003 47.439,294.251 47.683 C 293.730 47.852,293.673 47.814,294.045 47.547 C 294.699 47.077,289.258 43.738,288.525 44.160 C 288.258 44.314,288.171 44.294,288.332 44.117 C 288.723 43.685,286.346 42.263,285.798 42.601 C 285.558 42.750,285.480 42.687,285.621 42.459 C 285.862 42.069,283.649 40.890,283.039 41.083 C 282.877 41.135,282.745 40.990,282.745 40.761 C 282.745 40.533,282.569 40.455,282.353 40.588 C 282.137 40.722,281.961 40.635,281.961 40.396 C 281.961 39.867,279.561 38.806,279.061 39.115 C 278.864 39.237,278.814 39.156,278.951 38.934 C 279.233 38.479,275.814 37.022,274.902 37.209 C 274.578 37.275,274.441 37.200,274.597 37.041 C 274.964 36.669,272.238 35.198,271.745 35.502 C 271.540 35.629,271.373 35.535,271.373 35.294 C 271.373 35.053,271.208 34.957,271.007 35.081 C 270.807 35.205,270.524 35.116,270.380 34.882 C 270.235 34.648,269.861 34.555,269.548 34.675 C 269.230 34.797,269.085 34.722,269.218 34.505 C 269.456 34.121,268.925 33.957,267.902 34.097 C 267.611 34.137,267.478 33.998,267.608 33.788 C 267.747 33.563,267.497 33.497,266.998 33.628 C 266.466 33.767,266.246 33.697,266.404 33.441 C 266.543 33.216,266.174 32.849,265.583 32.625 C 255.266 28.707,246.275 25.879,246.275 26.553 C 246.275 26.669,246.054 26.584,245.784 26.365 C 244.818 25.580,233.517 23.094,230.686 23.043 C 229.770 23.026,229.020 22.888,229.020 22.734 C 229.020 22.369,222.343 21.402,219.706 21.385 C 218.573 21.378,217.647 21.224,217.647 21.042 C 217.647 20.861,216.721 20.763,215.588 20.827 C 214.456 20.890,213.176 20.829,212.745 20.691 C 211.781 20.384,197.204 20.110,190.784 20.279 M267.647 110.588 C 268.461 111.235,268.971 111.760,268.779 111.754 C 268.380 111.742,265.562 109.438,265.926 109.422 C 266.059 109.417,266.833 109.941,267.647 110.588 M191.841 167.444 C 185.559 169.202,180.373 172.149,175.639 176.650 C 173.403 178.777,168.627 185.476,168.627 186.486 C 168.627 186.789,168.248 187.818,167.785 188.771 C 166.864 190.668,167.009 191.765,168.181 191.765 C 168.596 191.765,169.032 192.015,169.149 192.322 C 169.281 192.664,170.242 192.986,171.642 193.156 C 172.896 193.308,174.397 193.675,174.977 193.970 C 175.558 194.265,177.146 194.671,178.507 194.872 C 179.867 195.073,182.039 195.617,183.333 196.080 C 184.627 196.544,186.392 197.058,187.255 197.224 C 189.108 197.578,192.032 198.384,193.137 198.844 C 193.569 199.024,194.716 199.286,195.686 199.427 C 196.657 199.567,197.928 199.912,198.510 200.194 C 199.576 200.708,200.784 199.772,200.784 198.433 C 200.784 198.203,201.063 197.908,201.403 197.777 C 202.808 197.238,232.248 167.358,231.710 167.017 C 230.574 166.297,194.560 166.683,191.841 167.444 "
              stroke="none" fill="#000000" fill-rule="evenodd"></path>
        <path id="path2"
              d="M194.902 205.523 C 192.422 208.063,187.039 213.513,182.941 217.636 L 175.490 225.132 176.863 226.306 C 182.274 230.934,187.992 233.563,194.636 234.479 C 196.735 234.768,218.162 234.892,262.479 234.872 L 327.255 234.842 321.569 233.289 C 315.655 231.674,312.938 230.940,306.667 229.264 C 304.618 228.716,300.912 227.720,298.431 227.050 C 295.951 226.381,291.627 225.222,288.824 224.474 C 286.020 223.727,282.137 222.689,280.196 222.168 C 278.255 221.647,272.078 219.991,266.471 218.486 C 260.863 216.982,252.922 214.848,248.824 213.743 C 241.819 211.854,235.168 210.076,227.451 208.031 C 225.618 207.546,218.789 205.716,212.276 203.966 C 205.763 202.216,200.204 200.812,199.923 200.846 C 199.642 200.879,197.382 202.984,194.902 205.523 M96.088 304.501 L 71.981 328.609 74.128 330.684 C 106.931 362.395,151.615 380.853,196.558 381.259 C 203.641 381.323,204.358 381.261,207.926 380.285 C 237.685 372.139,242.787 332.365,215.993 317.392 C 210.480 314.311,207.332 313.619,195.686 312.931 C 166.187 311.188,142.239 301.277,123.089 282.887 C 121.660 281.515,120.425 280.392,120.343 280.392 C 120.261 280.392,109.346 291.241,96.088 304.501 "
              stroke="none" fill="#000000" fill-rule="evenodd"></path>
        <path id="path3"
              d="M0.000 196.078 L 0.000 392.157 200.000 392.157 L 400.000 392.157 400.000 196.078 L 400.000 0.000 200.000 0.000 L 0.000 0.000 0.000 196.078 M213.178 20.409 C 305.591 27.878,378.061 103.816,379.890 195.098 C 380.331 217.083,371.924 229.505,353.407 234.229 L 350.000 235.098 272.353 235.098 L 194.706 235.098 191.349 234.227 C 160.872 226.319,155.797 184.917,183.529 170.436 C 191.762 166.137,189.373 166.282,252.255 166.278 C 281.750 166.276,305.881 166.142,305.880 165.980 C 305.834 161.092,294.971 140.839,287.107 130.980 C 231.517 61.293,123.682 80.459,92.944 165.490 C 86.173 184.222,85.639 210.843,91.620 231.569 C 93.597 238.420,95.169 242.457,98.647 249.608 C 116.898 287.136,153.016 310.624,195.490 312.587 C 205.895 313.068,210.003 313.920,215.246 316.684 C 241.706 330.635,239.323 368.851,211.323 379.599 C 205.507 381.831,190.613 382.187,177.843 380.397 C 159.825 377.873,146.419 374.476,133.333 369.120 C 131.500 368.370,129.029 367.363,127.843 366.884 C 107.988 358.858,83.723 341.827,68.796 325.439 C 66.223 322.614,63.688 319.838,63.162 319.269 C 52.002 307.196,39.092 286.105,32.165 268.627 C 30.840 265.284,29.587 262.196,29.382 261.765 C 28.953 260.865,27.426 256.145,26.083 251.569 C 16.023 217.305,16.589 178.297,27.630 144.902 C 38.803 111.110,57.558 83.851,85.915 60.190 C 101.253 47.392,121.704 36.205,142.469 29.254 C 153.946 25.412,159.229 24.104,171.961 21.955 C 182.202 20.227,201.819 19.491,213.178 20.409 "
              stroke="none" fill="transparent" fill-opacity="0" fill-rule="evenodd"></path>
        <path id="path4"
              d="M189.902 20.288 C 190.926 20.369,192.603 20.369,193.627 20.288 C 194.652 20.207,193.814 20.141,191.765 20.141 C 189.716 20.141,188.877 20.207,189.902 20.288 M205.208 20.289 C 206.239 20.370,207.827 20.369,208.737 20.287 C 209.647 20.204,208.804 20.138,206.863 20.139 C 204.922 20.140,204.177 20.208,205.208 20.289 M213.235 20.669 C 213.721 20.762,214.515 20.762,215.000 20.669 C 215.485 20.575,215.088 20.499,214.118 20.499 C 213.147 20.499,212.750 20.575,213.235 20.669 M180.490 21.055 C 180.868 21.153,181.485 21.153,181.863 21.055 C 182.240 20.956,181.931 20.875,181.176 20.875 C 180.422 20.875,180.113 20.956,180.490 21.055 M173.431 21.839 C 173.809 21.938,174.426 21.938,174.804 21.839 C 175.181 21.740,174.873 21.660,174.118 21.660 C 173.363 21.660,173.054 21.740,173.431 21.839 M224.020 21.839 C 224.397 21.938,225.015 21.938,225.392 21.839 C 225.770 21.740,225.461 21.660,224.706 21.660 C 223.951 21.660,223.642 21.740,224.020 21.839 M156.078 25.098 C 155.290 25.350,155.252 25.414,155.882 25.424 C 156.314 25.430,157.020 25.283,157.451 25.098 C 158.450 24.669,157.419 24.669,156.078 25.098 M147.451 27.537 C 146.696 27.761,146.280 28.018,146.526 28.108 C 146.772 28.199,147.566 28.014,148.291 27.698 C 149.823 27.029,149.421 26.952,147.451 27.537 M141.471 29.503 C 139.584 30.173,138.123 30.803,138.223 30.903 C 138.415 31.094,145.490 28.641,145.490 28.383 C 145.490 28.118,144.952 28.268,141.471 29.503 M131.961 33.090 C 125.906 35.548,121.107 37.708,121.291 37.892 C 121.364 37.965,123.530 37.124,126.104 36.024 C 134.507 32.432,135.190 32.157,135.735 32.144 C 136.032 32.138,136.617 31.873,137.036 31.556 C 138.268 30.624,137.351 30.901,131.961 33.090 M269.412 34.249 C 269.412 34.350,269.981 34.632,270.677 34.874 C 271.373 35.117,271.770 35.154,271.560 34.957 C 271.113 34.539,269.412 33.978,269.412 34.249 M115.692 40.508 C 114.077 41.381,112.983 42.171,113.261 42.263 C 113.539 42.356,114.418 41.990,115.216 41.451 C 116.014 40.912,117.048 40.358,117.514 40.220 C 118.346 39.974,119.639 38.777,118.970 38.873 C 118.781 38.900,117.306 39.636,115.692 40.508 M282.778 40.538 C 283.181 40.899,285.490 41.960,285.490 41.785 C 285.490 41.559,283.316 40.392,282.895 40.392 C 282.741 40.392,282.688 40.458,282.778 40.538 M286.667 42.529 C 286.667 42.637,287.196 42.999,287.843 43.333 C 288.490 43.668,289.020 43.853,289.020 43.746 C 289.020 43.638,288.490 43.276,287.843 42.941 C 287.196 42.607,286.667 42.421,286.667 42.529 M110.098 43.556 C 109.289 43.983,108.627 44.420,108.627 44.527 C 108.627 44.634,109.333 44.362,110.196 43.922 C 111.059 43.481,111.765 43.037,111.765 42.933 C 111.765 42.677,111.762 42.678,110.098 43.556 M107.255 45.169 C 103.073 47.514,90.508 56.357,85.915 60.190 C 71.307 72.379,57.994 86.888,49.581 99.789 C 48.057 102.126,49.790 100.308,51.531 97.743 C 52.519 96.288,53.626 94.657,53.992 94.118 C 54.358 93.578,55.473 92.167,56.469 90.980 C 57.465 89.794,58.537 88.446,58.852 87.984 C 62.877 82.088,78.648 66.318,86.754 60.083 C 87.677 59.373,89.225 58.159,90.196 57.384 C 93.229 54.963,97.545 51.765,97.778 51.765 C 97.901 51.765,99.113 51.015,100.471 50.098 C 101.830 49.181,103.294 48.209,103.725 47.936 C 106.570 46.141,108.235 45.009,108.235 44.868 C 108.235 44.642,108.146 44.670,107.255 45.169 M301.569 51.837 C 302.453 52.711,307.615 56.269,307.331 55.809 C 307.195 55.589,305.710 54.475,304.032 53.332 C 302.354 52.190,301.245 51.517,301.569 51.837 M307.984 56.381 C 308.294 56.883,310.588 58.581,310.588 58.309 C 310.588 58.212,309.940 57.638,309.149 57.034 C 308.357 56.430,307.833 56.136,307.984 56.381 M313.333 60.504 C 313.333 60.606,314.341 61.549,315.572 62.599 C 316.804 63.650,317.686 64.305,317.532 64.055 C 317.195 63.507,313.333 60.241,313.333 60.504 M319.216 65.686 C 319.947 66.441,320.634 67.059,320.742 67.059 C 320.850 67.059,320.340 66.441,319.608 65.686 C 318.876 64.931,318.189 64.314,318.081 64.314 C 317.974 64.314,318.484 64.931,319.216 65.686 M325.875 71.863 C 329.693 75.778,330.196 76.257,330.196 75.973 C 330.196 75.916,328.299 74.019,325.980 71.758 L 321.765 67.647 325.875 71.863 M333.333 79.731 C 333.333 79.798,333.907 80.372,334.608 81.005 L 335.882 82.157 334.731 80.882 C 333.657 79.694,333.333 79.428,333.333 79.731 M189.902 88.898 C 190.279 88.996,190.897 88.996,191.275 88.898 C 191.652 88.799,191.343 88.718,190.588 88.718 C 189.833 88.718,189.525 88.799,189.902 88.898 M207.549 88.898 C 207.926 88.996,208.544 88.996,208.922 88.898 C 209.299 88.799,208.990 88.718,208.235 88.718 C 207.480 88.718,207.172 88.799,207.549 88.898 M186.373 89.290 C 186.750 89.389,187.368 89.389,187.745 89.290 C 188.123 89.191,187.814 89.111,187.059 89.111 C 186.304 89.111,185.995 89.191,186.373 89.290 M210.686 89.290 C 211.064 89.389,211.681 89.389,212.059 89.290 C 212.436 89.191,212.127 89.111,211.373 89.111 C 210.618 89.111,210.309 89.191,210.686 89.290 M183.235 89.682 C 183.613 89.781,184.230 89.781,184.608 89.682 C 184.985 89.583,184.676 89.503,183.922 89.503 C 183.167 89.503,182.858 89.583,183.235 89.682 M214.216 89.682 C 214.593 89.781,215.211 89.781,215.588 89.682 C 215.966 89.583,215.657 89.503,214.902 89.503 C 214.147 89.503,213.838 89.583,214.216 89.682 M163.629 93.938 C 161.419 94.658,159.213 95.545,158.727 95.907 C 157.968 96.474,157.954 96.525,158.627 96.269 C 159.059 96.105,161.529 95.210,164.118 94.281 C 169.675 92.285,169.367 92.069,163.629 93.938 M236.471 94.836 C 236.794 95.036,237.500 95.317,238.039 95.461 C 238.721 95.644,238.840 95.613,238.431 95.360 C 238.108 95.160,237.402 94.879,236.863 94.735 C 236.181 94.552,236.062 94.583,236.471 94.836 M155.294 97.255 C 153.548 98.211,154.210 98.211,156.275 97.255 C 157.137 96.856,157.578 96.523,157.255 96.516 C 156.931 96.509,156.049 96.842,155.294 97.255 M150.490 99.436 C 149.034 100.184,147.843 100.883,147.843 100.991 C 147.843 101.166,153.294 98.555,153.693 98.189 C 154.229 97.697,152.782 98.260,150.490 99.436 M47.362 103.235 C 45.347 106.326,44.228 108.235,44.431 108.235 C 44.643 108.235,47.938 103.350,48.597 102.059 C 49.394 100.496,48.742 101.118,47.362 103.235 M144.118 102.762 C 139.524 105.347,136.471 107.315,136.471 107.690 C 136.471 107.817,137.044 107.544,137.745 107.085 C 138.446 106.625,140.255 105.527,141.765 104.644 C 145.867 102.244,146.904 101.578,146.471 101.620 C 146.255 101.641,145.196 102.155,144.118 102.762 M252.157 101.745 C 252.157 101.852,252.686 102.214,253.333 102.549 C 253.980 102.884,254.510 103.069,254.510 102.961 C 254.510 102.853,253.980 102.491,253.333 102.157 C 252.686 101.822,252.157 101.637,252.157 101.745 M254.902 103.313 C 254.902 103.421,255.431 103.783,256.078 104.118 C 256.725 104.452,257.255 104.638,257.255 104.530 C 257.255 104.422,256.725 104.060,256.078 103.725 C 255.431 103.391,254.902 103.205,254.902 103.313 M132.745 110.170 C 131.020 111.439,128.902 113.087,128.039 113.832 C 127.176 114.577,125.187 116.281,123.619 117.619 C 120.715 120.096,113.629 127.823,111.120 131.247 C 109.398 133.598,110.899 132.012,114.187 128.006 C 118.520 122.728,125.952 115.754,132.451 110.867 C 135.600 108.500,136.404 107.813,135.980 107.852 C 135.926 107.857,134.471 108.900,132.745 110.170 M43.199 109.983 C 42.748 110.747,42.450 111.373,42.536 111.373 C 42.843 111.373,44.395 108.971,44.209 108.784 C 44.104 108.680,43.650 109.219,43.199 109.983 M356.275 111.373 C 356.609 112.020,356.971 112.549,357.079 112.549 C 357.187 112.549,357.001 112.020,356.667 111.373 C 356.332 110.725,355.970 110.196,355.862 110.196 C 355.754 110.196,355.940 110.725,356.275 111.373 M266.471 110.840 C 268.467 112.612,269.203 113.129,268.433 112.219 C 268.006 111.713,267.301 111.118,266.867 110.896 C 266.433 110.674,266.255 110.649,266.471 110.840 M39.614 116.562 C 38.258 119.208,37.338 121.196,37.569 120.980 C 38.128 120.459,42.422 112.095,42.229 111.902 C 42.147 111.820,40.970 113.917,39.614 116.562 M269.412 113.043 C 269.412 113.135,270.338 113.983,271.471 114.928 C 272.603 115.872,273.282 116.334,272.979 115.955 C 272.371 115.192,269.412 112.777,269.412 113.043 M358.235 114.902 C 358.570 115.549,358.932 116.078,359.040 116.078 C 359.148 116.078,358.962 115.549,358.627 114.902 C 358.293 114.255,357.931 113.725,357.823 113.725 C 357.715 113.725,357.901 114.255,358.235 114.902 M278.228 121.096 C 280.381 123.297,282.214 125.098,282.301 125.098 C 282.580 125.098,278.995 121.380,276.612 119.199 C 275.348 118.041,276.075 118.895,278.228 121.096 M35.584 124.604 C 34.802 126.266,34.222 127.686,34.294 127.758 C 34.367 127.831,35.070 126.534,35.857 124.876 C 36.644 123.219,37.224 121.799,37.146 121.722 C 37.069 121.644,36.366 122.941,35.584 124.604 M283.137 126.397 C 283.137 126.465,283.711 127.038,284.412 127.672 L 285.686 128.824 284.534 127.549 C 283.461 126.361,283.137 126.094,283.137 126.397 M32.433 131.777 C 31.633 133.782,31.043 135.488,31.123 135.567 C 31.202 135.647,31.495 135.132,31.774 134.424 C 32.053 133.716,32.708 132.208,33.230 131.073 C 33.752 129.938,34.114 128.811,34.033 128.570 C 33.953 128.328,33.232 129.771,32.433 131.777 M108.457 134.804 C 107.610 135.887,107.542 136.069,108.199 135.495 C 108.986 134.808,110.023 133.333,109.720 133.333 C 109.658 133.333,109.090 133.995,108.457 134.804 M29.461 139.461 C 28.779 141.332,28.293 142.933,28.380 143.020 C 28.467 143.108,29.093 141.645,29.771 139.771 C 30.449 137.897,30.936 136.295,30.852 136.212 C 30.768 136.128,30.142 137.590,29.461 139.461 M105.622 138.725 C 104.827 139.966,103.783 141.598,103.300 142.353 C 101.026 145.914,97.469 152.877,95.588 157.451 C 93.927 161.490,93.615 162.373,93.785 162.543 C 93.876 162.634,94.371 161.613,94.886 160.276 C 97.324 153.940,102.268 144.373,105.872 139.020 C 107.295 136.904,107.535 136.471,107.282 136.471 C 107.164 136.471,106.417 137.485,105.622 138.725 M27.100 146.316 C 26.610 147.838,26.288 149.163,26.384 149.260 C 26.481 149.357,26.961 148.190,27.451 146.667 C 27.941 145.143,28.263 143.818,28.167 143.722 C 28.070 143.626,27.591 144.793,27.100 146.316 M299.488 150.387 C 299.847 151.139,300.210 151.685,300.295 151.600 C 300.475 151.421,299.284 149.020,299.016 149.020 C 298.917 149.020,299.130 149.635,299.488 150.387 M25.144 152.843 C 24.918 153.868,24.113 157.353,23.354 160.588 C 17.161 186.997,17.518 218.742,24.303 245.098 C 25.798 250.903,28.620 260.164,29.382 261.765 C 29.587 262.196,30.840 265.284,32.165 268.627 C 39.092 286.105,52.002 307.196,63.162 319.269 C 63.688 319.838,66.223 322.614,68.796 325.439 C 73.227 330.304,77.108 334.038,82.647 338.769 C 87.356 342.790,85.048 340.475,79.013 335.124 C 75.666 332.156,72.766 329.424,72.567 329.054 C 72.016 328.023,120.200 279.923,120.922 280.784 C 121.192 281.108,122.470 282.343,123.761 283.529 C 125.051 284.716,123.609 283.216,120.556 280.196 C 110.720 270.469,104.746 262.127,98.650 249.608 C 95.171 242.462,93.599 238.429,91.620 231.569 C 86.058 212.296,85.982 190.178,91.411 170.845 C 92.068 168.506,92.524 166.511,92.425 166.412 C 92.326 166.313,92.033 167.115,91.774 168.195 C 91.023 171.329,90.452 171.470,85.391 169.775 C 84.150 169.360,82.663 169.020,82.088 169.020 C 81.513 169.020,80.764 168.772,80.423 168.468 C 80.083 168.165,78.392 167.706,76.667 167.449 C 74.941 167.191,73.265 166.821,72.941 166.625 C 72.043 166.082,71.150 165.825,65.490 164.481 C 64.088 164.148,61.882 163.531,60.588 163.110 C 59.294 162.689,57.929 162.347,57.555 162.349 C 56.817 162.353,50.375 160.549,49.750 160.163 C 49.540 160.033,48.451 159.782,47.331 159.606 C 46.211 159.430,44.500 159.015,43.529 158.685 C 42.559 158.354,40.618 157.820,39.216 157.498 C 35.034 156.537,33.192 156.011,32.157 155.481 C 31.618 155.205,30.157 154.852,28.911 154.698 C 26.385 154.385,25.344 153.463,25.739 151.889 C 25.865 151.389,25.875 150.980,25.761 150.980 C 25.648 150.980,25.370 151.819,25.144 152.843 M375.764 161.765 C 375.764 162.196,375.906 162.990,376.078 163.529 C 376.327 164.306,376.392 164.347,376.392 163.725 C 376.392 163.294,376.251 162.500,376.078 161.961 C 375.830 161.184,375.764 161.144,375.764 161.765 M92.941 164.314 C 92.667 164.975,92.535 165.607,92.647 165.719 C 92.759 165.831,93.048 165.355,93.290 164.662 C 93.860 163.026,93.588 162.753,92.941 164.314 M224.185 166.569 C 239.104 166.625,263.634 166.625,278.695 166.569 C 293.756 166.512,281.549 166.465,251.569 166.465 C 221.588 166.465,209.266 166.512,224.185 166.569 M186.863 168.838 C 186.216 169.134,185.951 169.378,186.275 169.380 C 186.598 169.382,187.304 169.132,187.843 168.824 C 189.083 168.115,188.421 168.124,186.863 168.838 M182.266 171.127 C 179.732 172.653,175.833 175.601,174.743 176.815 C 173.442 178.264,174.471 177.714,176.389 175.935 C 177.950 174.488,181.014 172.271,184.152 170.317 C 184.564 170.060,184.803 169.840,184.683 169.827 C 184.562 169.814,183.475 170.399,182.266 171.127 M171.753 180.686 C 169.710 183.435,166.915 188.785,167.152 189.495 C 167.227 189.719,167.607 189.130,167.997 188.186 C 168.387 187.243,168.932 185.941,169.208 185.294 C 169.483 184.647,170.693 182.750,171.896 181.078 C 173.099 179.407,174.002 178.039,173.902 178.039 C 173.803 178.039,172.836 179.230,171.753 180.686 M379.322 185.098 C 379.322 186.069,379.399 186.466,379.492 185.980 C 379.586 185.495,379.586 184.701,379.492 184.216 C 379.399 183.730,379.322 184.127,379.322 185.098 M379.737 190.784 C 379.738 192.294,379.809 192.864,379.894 192.050 C 379.979 191.236,379.978 190.001,379.891 189.305 C 379.804 188.609,379.735 189.275,379.737 190.784 M166.351 192.034 C 162.677 206.585,168.738 222.002,181.275 229.991 C 181.868 230.369,182.353 230.588,182.353 230.478 C 182.353 230.368,181.515 229.727,180.490 229.054 C 179.466 228.382,177.922 227.221,177.059 226.475 L 175.490 225.119 182.941 217.621 C 187.039 213.498,192.377 208.163,194.804 205.767 C 200.251 200.389,200.286 200.136,195.686 199.439 C 194.716 199.292,193.569 199.024,193.137 198.844 C 192.032 198.384,189.108 197.578,187.255 197.224 C 186.392 197.058,184.627 196.544,183.333 196.080 C 182.039 195.617,179.867 195.073,178.507 194.872 C 177.146 194.671,175.558 194.265,174.977 193.970 C 174.397 193.675,172.896 193.308,171.642 193.156 C 170.242 192.986,169.281 192.664,169.149 192.322 C 169.032 192.015,168.596 191.765,168.181 191.765 C 167.765 191.765,167.291 191.401,167.127 190.956 C 166.880 190.291,166.743 190.481,166.351 192.034 M379.699 205.098 C 379.699 205.853,379.780 206.162,379.878 205.784 C 379.977 205.407,379.977 204.789,379.878 204.412 C 379.780 204.034,379.699 204.343,379.699 205.098 M371.351 223.431 L 370.000 224.902 371.471 223.551 C 372.839 222.293,373.121 221.961,372.822 221.961 C 372.756 221.961,372.095 222.623,371.351 223.431 M182.745 230.781 C 182.745 231.049,185.146 232.239,185.326 232.060 C 185.411 231.975,184.865 231.612,184.113 231.253 C 183.361 230.894,182.745 230.682,182.745 230.781 M186.667 232.688 C 186.667 232.977,190.668 234.168,190.891 233.946 C 190.984 233.853,190.325 233.579,189.427 233.337 C 188.529 233.096,187.540 232.800,187.230 232.681 C 186.920 232.562,186.667 232.565,186.667 232.688 M192.941 234.597 C 193.727 234.999,209.176 235.100,270.784 235.107 L 347.647 235.115 270.784 234.900 C 228.510 234.782,193.480 234.552,192.941 234.390 L 191.961 234.096 192.941 234.597 M349.118 234.780 C 349.495 234.879,350.113 234.879,350.490 234.780 C 350.868 234.681,350.559 234.601,349.804 234.601 C 349.049 234.601,348.740 234.681,349.118 234.780 M127.255 286.630 C 128.065 287.565,130.196 289.208,130.196 288.897 C 130.196 288.801,129.358 288.048,128.333 287.224 C 127.309 286.400,126.824 286.133,127.255 286.630 M130.865 289.446 C 131.125 289.771,132.183 290.617,133.218 291.325 C 134.618 292.283,134.797 292.348,133.922 291.580 C 132.214 290.083,130.314 288.756,130.865 289.446 M135.558 292.975 C 135.811 293.280,136.605 293.853,137.323 294.248 L 138.627 294.967 137.647 294.139 C 136.255 292.963,134.940 292.231,135.558 292.975 M141.176 296.647 C 141.176 296.754,141.706 297.116,142.353 297.451 C 143.000 297.786,143.529 297.971,143.529 297.863 C 143.529 297.755,143.000 297.393,142.353 297.059 C 141.706 296.724,141.176 296.539,141.176 296.647 M143.922 298.219 C 143.922 298.327,144.627 298.776,145.490 299.216 C 146.353 299.656,147.059 299.928,147.059 299.820 C 147.059 299.712,146.353 299.264,145.490 298.824 C 144.627 298.383,143.922 298.112,143.922 298.219 M147.451 300.192 C 147.451 300.461,149.852 301.651,150.032 301.472 C 150.117 301.387,149.571 301.024,148.819 300.665 C 148.066 300.306,147.451 300.094,147.451 300.192 M151.373 302.152 C 151.373 302.358,154.054 303.540,154.460 303.513 C 154.774 303.492,152.060 301.999,151.667 301.977 C 151.505 301.968,151.373 302.047,151.373 302.152 M156.471 304.510 C 157.010 304.818,157.627 305.070,157.843 305.070 C 158.059 305.070,157.794 304.818,157.255 304.510 C 156.716 304.202,156.098 303.949,155.882 303.949 C 155.667 303.949,155.931 304.202,156.471 304.510 M159.412 305.642 C 160.059 305.936,161.029 306.286,161.569 306.418 C 162.356 306.611,162.317 306.553,161.373 306.123 C 160.725 305.828,159.755 305.479,159.216 305.347 C 158.428 305.153,158.467 305.212,159.412 305.642 M163.922 307.198 C 163.922 307.486,167.923 308.678,168.145 308.456 C 168.238 308.363,167.580 308.089,166.682 307.847 C 165.784 307.605,164.795 307.310,164.485 307.191 C 164.175 307.072,163.922 307.075,163.922 307.198 M171.569 309.601 C 172.431 309.895,173.490 310.138,173.922 310.141 L 174.706 310.146 173.922 309.835 C 173.490 309.664,172.431 309.421,171.569 309.295 L 170.000 309.066 171.569 309.601 M179.804 311.373 C 180.451 311.537,181.598 311.672,182.353 311.673 L 183.725 311.675 182.157 311.350 C 180.044 310.913,178.072 310.932,179.804 311.373 M196.863 312.937 C 199.559 313.120,202.824 313.365,204.118 313.480 C 205.820 313.631,206.162 313.592,205.354 313.339 C 204.740 313.146,201.475 312.902,198.099 312.796 L 191.961 312.603 196.863 312.937 M210.557 314.929 C 211.726 315.344,212.750 315.616,212.833 315.533 C 213.016 315.350,209.444 314.106,208.852 314.146 C 208.621 314.162,209.388 314.514,210.557 314.929 M214.118 316.259 C 214.118 316.366,214.824 316.815,215.686 317.255 C 216.549 317.695,217.255 317.967,217.255 317.859 C 217.255 317.751,216.549 317.303,215.686 316.863 C 214.824 316.423,214.118 316.151,214.118 316.259 M223.992 323.405 C 225.198 324.738,226.764 326.724,227.472 327.817 C 228.806 329.875,229.395 330.462,228.581 328.922 C 227.800 327.443,224.872 323.806,223.292 322.353 C 222.425 321.556,222.719 321.996,223.992 323.405 M229.804 331.765 C 230.244 332.627,230.692 333.333,230.800 333.333 C 230.908 333.333,230.636 332.627,230.196 331.765 C 229.756 330.902,229.308 330.196,229.200 330.196 C 229.092 330.196,229.364 330.902,229.804 331.765 M231.229 334.510 C 231.361 335.049,231.711 336.020,232.005 336.667 C 232.435 337.612,232.494 337.650,232.300 336.863 C 232.168 336.324,231.819 335.353,231.524 334.706 C 231.094 333.761,231.036 333.722,231.229 334.510 M233.137 347.255 C 233.137 351.395,233.264 353.679,233.457 353.032 C 233.632 352.443,233.776 349.843,233.776 347.255 C 233.776 344.667,233.632 342.067,233.457 341.478 C 233.264 340.831,233.137 343.115,233.137 347.255 M89.412 344.065 C 89.412 344.315,93.933 347.688,97.549 350.135 C 98.897 351.047,100.000 351.709,100.000 351.605 C 100.000 351.501,98.456 350.346,96.569 349.039 C 94.681 347.732,92.299 346.029,91.275 345.254 C 90.250 344.480,89.412 343.945,89.412 344.065 M101.151 352.474 C 101.676 352.901,102.646 353.548,103.307 353.912 L 104.510 354.575 103.555 353.800 C 103.030 353.374,102.060 352.727,101.398 352.362 L 100.196 351.699 101.151 352.474 M105.294 355.109 C 105.725 355.459,106.608 356.006,107.255 356.323 C 108.355 356.863,108.381 356.859,107.647 356.264 C 107.216 355.913,106.333 355.367,105.686 355.049 C 104.586 354.509,104.561 354.513,105.294 355.109 M231.843 357.922 C 231.598 358.719,231.463 359.437,231.542 359.516 C 231.622 359.595,231.898 359.019,232.157 358.235 C 232.416 357.451,232.551 356.734,232.458 356.641 C 232.365 356.548,232.088 357.124,231.843 357.922 M111.373 358.607 C 111.373 358.715,111.902 359.077,112.549 359.412 C 113.196 359.746,113.725 359.932,113.725 359.824 C 113.725 359.716,113.196 359.354,112.549 359.020 C 111.902 358.685,111.373 358.499,111.373 358.607 M115.467 361.000 C 116.310 361.630,117.028 361.760,116.696 361.224 C 116.579 361.034,116.083 360.778,115.594 360.655 C 114.737 360.439,114.733 360.451,115.467 361.000 M229.883 362.558 C 229.414 363.523,229.112 364.314,229.213 364.314 C 229.478 364.314,231.063 361.128,230.886 360.951 C 230.803 360.869,230.352 361.592,229.883 362.558 M118.039 362.153 C 118.039 362.421,120.440 363.612,120.620 363.433 C 120.705 363.347,120.159 362.984,119.407 362.626 C 118.655 362.267,118.039 362.054,118.039 362.153 M122.157 364.206 C 122.772 364.766,128.262 367.163,128.464 366.961 C 128.564 366.861,127.804 366.419,126.774 365.980 C 125.744 365.541,124.196 364.882,123.333 364.515 C 122.471 364.149,121.941 364.009,122.157 364.206 M228.089 365.784 C 227.781 366.377,226.784 367.709,225.873 368.743 C 224.962 369.776,224.300 370.705,224.400 370.806 C 224.501 370.906,225.378 369.972,226.350 368.730 C 228.133 366.449,229.215 364.706,228.847 364.706 C 228.738 364.706,228.396 365.191,228.089 365.784 M130.588 368.006 C 131.127 368.294,132.010 368.640,132.549 368.774 C 133.088 368.908,132.824 368.678,131.961 368.264 C 130.186 367.410,129.086 367.204,130.588 368.006 M133.725 369.146 C 133.725 369.431,138.100 371.050,138.308 370.842 C 138.399 370.751,137.714 370.411,136.786 370.086 C 135.858 369.761,134.789 369.369,134.412 369.215 C 134.034 369.061,133.725 369.030,133.725 369.146 M139.804 371.583 C 140.451 371.879,141.245 372.116,141.569 372.109 C 141.892 372.103,141.539 371.859,140.784 371.569 C 138.994 370.879,138.289 370.889,139.804 371.583 M144.510 373.151 C 145.157 373.448,145.951 373.685,146.275 373.678 C 146.598 373.671,146.245 373.428,145.490 373.137 C 143.700 372.448,142.995 372.458,144.510 373.151 M150.196 374.878 C 150.520 375.067,151.490 375.329,152.353 375.459 L 153.922 375.696 152.157 375.109 C 150.197 374.457,149.295 374.350,150.196 374.878 M218.645 375.398 C 218.007 375.873,216.242 376.922,214.723 377.728 C 213.204 378.535,212.111 379.200,212.296 379.205 C 212.870 379.223,217.784 376.518,219.020 375.504 C 220.481 374.304,220.214 374.229,218.645 375.398 M155.686 376.201 C 155.686 376.475,161.225 377.729,161.449 377.505 C 161.545 377.410,160.687 377.131,159.544 376.886 C 158.400 376.640,157.064 376.339,156.575 376.217 C 156.086 376.094,155.686 376.087,155.686 376.201 M165.294 378.388 C 165.725 378.573,167.049 378.828,168.235 378.956 C 169.867 379.131,170.058 379.106,169.020 378.854 C 166.747 378.301,164.411 378.010,165.294 378.388 M208.235 380.227 L 206.471 380.769 208.039 380.545 C 208.902 380.421,209.873 380.166,210.196 379.976 C 211.012 379.499,210.317 379.587,208.235 380.227 M177.969 380.380 C 179.117 380.559,181.676 380.799,183.656 380.914 C 186.570 381.083,186.807 381.061,184.902 380.797 C 183.608 380.618,181.049 380.378,179.216 380.263 C 176.600 380.100,176.332 380.125,177.969 380.380 M192.059 381.464 C 192.975 381.546,194.475 381.546,195.392 381.464 C 196.309 381.381,195.559 381.313,193.725 381.313 C 191.892 381.313,191.142 381.381,192.059 381.464 M201.667 381.447 C 202.044 381.545,202.662 381.545,203.039 381.447 C 203.417 381.348,203.108 381.267,202.353 381.267 C 201.598 381.267,201.289 381.348,201.667 381.447 "
              stroke="none" fill="" fill-rule="evenodd"></path>
    </g>
</svg>