<?xml version="1.0" standalone="no"?>
<!DOCTYPE svg PUBLIC "-//W3C//DTD SVG 20010904//EN"
 "http://www.w3.org/TR/2001/REC-SVG-20010904/DTD/svg10.dtd">
<svg version="1.0" xmlns="http://www.w3.org/2000/svg"
 width="800.000000pt" height="800.000000pt" viewBox="0 0 800.000000 800.000000"
 preserveAspectRatio="xMidYMid meet">
<metadata>
Created by potrace 1.11, written by Peter Selinger 2001-2013
</metadata>
<g transform="translate(0.000000,800.000000) scale(0.100000,-0.100000)"
fill="#000000" stroke="none">
<path d="M3778 7514 c-2 -1 -41 -5 -88 -8 -47 -4 -98 -9 -115 -12 -16 -2 -50
-6 -75 -9 -25 -2 -81 -11 -124 -20 -44 -8 -81 -13 -84 -10 -3 3 -10 1 -16 -4
-6 -5 -24 -11 -41 -14 -76 -12 -110 -20 -115 -27 -3 -5 -21 -9 -40 -11 -19 -2
-39 -6 -45 -10 -5 -4 -28 -10 -49 -13 -22 -4 -45 -11 -52 -17 -6 -5 -16 -9
-20 -8 -5 1 -12 0 -16 -1 -5 -1 -12 -4 -18 -5 -5 -1 -11 -3 -12 -4 -2 -2 -13
-4 -25 -7 -12 -2 -38 -13 -58 -24 -19 -11 -39 -19 -43 -19 -4 1 -10 0 -14 -1
-5 -1 -11 -3 -15 -5 -5 -1 -16 -5 -25 -8 -10 -4 -26 -10 -35 -14 -10 -3 -21
-5 -25 -5 -5 1 -8 -3 -8 -8 0 -5 -3 -9 -7 -8 -5 1 -21 -4 -38 -11 -16 -7 -30
-11 -30 -10 0 1 -20 -8 -45 -21 -25 -13 -45 -21 -45 -19 0 2 -11 -6 -24 -18
-12 -11 -38 -24 -57 -27 -18 -4 -40 -14 -49 -22 -8 -9 -15 -12 -15 -8 0 4 -10
-2 -22 -14 -13 -11 -35 -24 -50 -27 -16 -4 -28 -12 -28 -18 0 -6 -3 -7 -7 -4
-3 4 -16 -2 -27 -12 -12 -11 -25 -20 -31 -20 -14 0 -195 -120 -270 -179 -5 -4
-38 -28 -72 -52 -34 -24 -59 -48 -56 -53 3 -6 1 -7 -4 -4 -6 4 -23 -5 -37 -18
-15 -14 -32 -25 -38 -25 -6 0 -8 -3 -5 -7 4 -3 -3 -14 -15 -22 -40 -28 -326
-301 -315 -301 2 0 -22 -27 -54 -60 -33 -33 -59 -63 -59 -68 0 -4 -9 -14 -19
-22 -11 -7 -18 -17 -15 -22 3 -4 1 -8 -4 -8 -5 0 -29 -26 -53 -57 -24 -32 -47
-59 -51 -61 -5 -2 -8 -8 -8 -14 0 -5 -6 -16 -13 -23 -29 -33 -37 -45 -37 -55
0 -5 -4 -10 -10 -10 -5 0 -10 -7 -10 -15 0 -8 -5 -15 -11 -15 -5 0 -8 -4 -5
-9 3 -5 -6 -21 -19 -37 -41 -47 -44 -51 -50 -77 -4 -14 -14 -33 -24 -44 -23
-25 -111 -183 -111 -199 0 -8 -4 -14 -10 -14 -5 0 -9 -3 -8 -7 2 -11 -13 -45
-27 -63 -7 -8 -23 -42 -36 -75 -13 -33 -28 -63 -32 -66 -5 -3 -9 -10 -9 -15 0
-5 -5 -20 -11 -34 -9 -23 -14 -42 -21 -78 -1 -8 -8 -17 -15 -21 -7 -5 -13 -12
-13 -17 0 -5 -4 -18 -8 -29 -4 -11 -11 -36 -15 -55 -4 -19 -12 -40 -17 -47 -5
-7 -7 -17 -3 -23 3 -5 2 -10 -4 -10 -6 0 -13 -17 -16 -37 -4 -21 -11 -49 -17
-63 -6 -14 -12 -30 -14 -37 -1 -7 -10 -43 -19 -80 -10 -37 -19 -79 -21 -93 -3
-14 -7 -32 -9 -40 -3 -8 -7 -32 -11 -54 -3 -21 -8 -47 -10 -57 -10 -45 -12
-57 -19 -114 -4 -33 -9 -71 -11 -85 -9 -58 -18 -212 -19 -302 0 -54 -3 -98 -6
-98 -3 0 -5 -12 -3 -27 2 -16 5 -98 8 -183 4 -85 8 -166 11 -180 3 -14 7 -51
10 -82 6 -67 12 -112 26 -188 6 -30 12 -66 15 -80 74 -402 238 -811 497 -1235
38 -61 141 -211 149 -213 4 -2 8 -9 8 -15 0 -7 15 -29 33 -49 17 -20 42 -50
54 -66 12 -15 33 -40 45 -53 13 -14 59 -65 103 -113 99 -109 167 -178 235
-236 29 -25 60 -52 69 -61 9 -8 45 -38 81 -65 36 -27 72 -56 80 -64 24 -25
159 -120 170 -120 5 0 10 -4 10 -10 0 -5 6 -10 14 -10 7 0 19 -7 26 -15 7 -9
29 -23 49 -32 20 -10 42 -23 49 -30 8 -7 36 -23 63 -34 27 -12 49 -24 49 -28
0 -3 9 -12 21 -19 16 -10 19 -11 13 -1 -4 7 8 1 27 -13 19 -13 49 -31 67 -38
17 -7 32 -15 32 -19 0 -4 10 -7 22 -8 11 -1 24 -6 27 -10 3 -5 31 -19 61 -32
30 -12 73 -31 95 -42 22 -11 51 -21 64 -24 14 -2 27 -8 30 -13 6 -9 55 -25 78
-27 7 0 22 -8 32 -17 12 -10 23 -13 26 -8 4 6 19 3 38 -7 18 -9 41 -18 52 -20
46 -8 95 -24 95 -32 0 -4 14 -7 30 -6 17 1 30 -2 30 -7 0 -5 4 -7 9 -4 5 3 26
-1 47 -10 21 -9 58 -18 83 -20 61 -6 74 -8 88 -17 7 -4 31 -9 55 -12 24 -2 59
-7 79 -10 50 -8 108 -16 144 -20 17 -2 30 -4 30 -6 0 -8 494 -18 499 -10 3 4
19 8 37 9 18 1 46 9 63 16 40 18 79 31 89 28 4 -1 7 2 7 7 0 5 13 14 29 20 15
7 48 30 72 52 24 22 61 55 82 72 20 17 37 37 37 44 0 6 5 15 12 19 7 5 8 3 3
-6 -5 -9 -4 -11 3 -6 7 4 12 13 12 21 0 7 7 21 16 29 8 9 12 16 8 16 -4 0 3
12 17 27 13 14 18 23 10 18 -11 -6 -10 -2 2 16 9 13 17 35 17 49 0 20 2 22 10
10 9 -13 10 -13 11 0 0 8 2 26 4 40 2 14 5 37 6 53 2 15 6 27 9 27 16 0 17
198 1 238 -5 15 -12 41 -15 57 -3 17 -8 41 -12 54 -8 26 -70 146 -88 169 -32
42 -107 112 -150 143 -28 19 -58 42 -68 52 -10 10 -23 15 -28 12 -6 -4 -10 -1
-10 4 0 6 -3 10 -7 9 -10 -2 -47 14 -53 23 -3 3 -25 9 -50 12 -54 7 -72 11
-85 19 -5 3 -22 4 -38 2 -17 -1 -25 1 -21 8 4 7 0 6 -13 -1 -11 -6 -22 -8 -25
-6 -3 3 -49 7 -104 10 -110 5 -176 12 -214 20 -25 6 -43 9 -123 20 -23 3 -55
10 -72 15 -16 5 -45 12 -64 15 -19 3 -42 10 -51 15 -10 5 -20 6 -24 3 -3 -3
-6 -2 -6 3 0 5 -8 11 -17 12 -36 4 -72 16 -158 52 -16 7 -37 14 -46 15 -9 1
-30 12 -47 24 -18 12 -36 20 -41 17 -5 -3 -19 3 -32 13 -13 10 -34 21 -46 25
-13 4 -23 12 -23 17 0 5 -3 8 -7 7 -12 -2 -46 14 -72 34 -13 10 -27 16 -31 13
-3 -2 -26 14 -50 35 -25 22 -50 40 -57 40 -7 0 -27 15 -44 33 -17 17 -35 32
-40 32 -5 0 -25 15 -44 32 -20 18 -39 33 -43 33 -13 0 -250 248 -315 329 -139
175 -294 459 -361 661 -22 68 -58 192 -62 215 -2 11 -7 40 -13 65 -5 25 -12
65 -16 90 -3 25 -8 59 -11 75 -13 84 -19 368 -10 460 13 135 21 188 47 303 12
52 22 101 24 110 2 9 4 18 5 20 2 1 4 7 5 12 1 6 3 11 4 13 2 1 4 15 6 31 2
16 9 34 14 39 6 6 11 19 11 29 0 11 8 33 17 51 9 18 18 34 18 37 4 24 40 100
48 100 6 0 8 3 4 6 -7 7 67 153 130 255 22 35 46 75 54 89 8 14 22 32 32 41 9
9 17 20 17 25 0 5 15 25 33 44 59 63 106 127 99 135 -4 3 -2 5 3 3 6 -1 37 23
70 55 32 31 63 57 68 57 4 0 5 5 2 10 -3 6 -2 10 3 10 5 0 20 9 33 21 72 62
115 98 123 101 5 1 24 17 42 33 46 42 53 47 106 74 26 13 45 28 42 33 -3 5 -2
7 3 6 14 -4 53 13 53 23 0 6 5 7 10 4 6 -3 10 -2 10 3 0 7 58 41 80 47 13 4
67 31 89 44 14 9 29 16 35 16 18 2 64 23 70 33 3 6 14 8 25 5 10 -2 26 3 35
12 9 10 19 15 22 12 3 -3 33 6 67 19 34 14 71 26 82 28 11 3 52 11 90 20 96
20 121 25 185 32 30 3 73 9 95 13 22 4 130 5 240 3 110 -3 218 -4 240 -4 22 0
43 -5 47 -11 6 -9 8 -9 8 0 0 9 7 10 24 3 13 -5 44 -12 67 -15 101 -15 250
-57 407 -114 45 -17 82 -27 82 -23 0 4 4 3 8 -3 4 -5 36 -25 72 -44 36 -19 72
-40 81 -47 8 -8 23 -14 32 -14 9 0 17 -4 17 -10 0 -5 7 -10 15 -10 8 0 15 -4
15 -10 0 -5 6 -10 14 -10 20 0 81 -36 133 -78 25 -20 47 -31 54 -26 7 4 9 3 6
-3 -3 -5 7 -21 24 -34 17 -13 39 -32 50 -42 11 -10 25 -15 32 -11 7 4 9 4 5
-1 -4 -4 2 -17 15 -27 12 -11 32 -28 45 -39 12 -10 26 -19 31 -19 5 0 12 -11
15 -25 4 -17 12 -25 24 -23 11 2 16 -3 14 -14 -2 -10 2 -18 7 -18 14 0 161
-171 215 -250 25 -36 49 -69 53 -75 18 -21 78 -123 113 -190 21 -38 46 -86 58
-106 26 -46 92 -223 92 -246 0 -17 -47 -18 -1048 -19 -576 0 -1090 -3 -1142
-7 -98 -7 -167 -22 -210 -47 -14 -8 -29 -15 -35 -16 -22 -5 -84 -42 -79 -47 3
-3 -4 -8 -16 -12 -12 -4 -39 -24 -60 -45 -21 -21 -42 -35 -46 -32 -4 4 -5 2
-1 -3 3 -6 -11 -28 -30 -50 -19 -22 -39 -49 -44 -60 -5 -11 -19 -36 -31 -55
-18 -30 -27 -55 -41 -115 -1 -5 -6 -16 -10 -23 -9 -13 -20 -105 -20 -162 0
-187 83 -388 207 -499 16 -14 43 -38 60 -53 17 -16 36 -28 42 -28 7 0 14 -4
16 -8 3 -9 92 -52 107 -52 5 0 11 -4 13 -9 2 -5 22 -11 46 -15 24 -3 48 -8 54
-12 5 -4 44 -8 87 -10 83 -4 1030 -7 1046 -4 6 1 15 2 20 0 29 -5 215 -4 215
2 0 4 14 3 30 -2 17 -5 30 -5 30 0 0 5 7 7 17 3 18 -7 81 -9 87 -2 2 2 92 2
200 -1 108 -3 196 -1 196 3 0 4 9 3 20 -3 11 -6 20 -7 20 -1 0 5 14 6 34 1 20
-4 39 -3 44 2 6 6 12 6 16 -1 7 -10 15 -8 47 11 3 1 13 -3 22 -11 10 -7 17 -9
17 -3 0 6 13 7 34 2 19 -4 39 -4 46 0 7 4 27 4 46 0 19 -4 34 -5 34 -1 0 11
44 8 52 -4 5 -6 8 -5 8 4 0 10 3 11 13 2 8 -6 17 -8 20 -4 11 11 57 10 57 -2
0 -6 3 -7 8 0 4 6 133 10 347 11 187 1 356 3 375 6 86 14 245 89 307 146 13
12 25 22 27 22 8 0 76 70 76 78 0 5 6 15 14 21 28 23 128 241 111 241 -3 0 0
12 6 28 10 25 17 111 18 222 1 84 2 112 3 119 0 3 -1 8 -2 11 -1 3 -4 27 -6
54 -3 51 -23 214 -30 251 -2 11 -6 34 -8 50 -3 17 -7 42 -10 55 -10 41 -17 84
-20 110 -2 14 -6 32 -9 40 -3 8 -20 69 -38 135 -41 157 -108 354 -172 505 -5
14 -11 30 -12 35 -2 6 -30 67 -64 136 -33 69 -61 130 -61 137 0 7 -4 12 -9 12
-5 0 -14 15 -22 33 -7 17 -16 34 -20 37 -3 3 -25 36 -49 74 -39 64 -119 184
-155 231 -9 11 -46 61 -83 110 -37 50 -72 95 -77 100 -6 6 -29 33 -50 60 -43
54 -182 199 -170 176 6 -9 4 -12 -3 -7 -7 4 -12 12 -12 17 0 11 -51 62 -101
101 -16 13 -29 29 -29 36 0 6 -5 12 -11 12 -5 0 -7 -6 -4 -12 4 -7 -1 -4 -9 6
-9 11 -16 23 -16 26 0 4 -11 13 -25 20 -13 7 -22 17 -19 21 3 5 -3 6 -12 2
-12 -4 -15 -3 -10 5 4 7 2 12 -6 12 -7 0 -30 16 -50 36 -22 20 -43 32 -50 28
-8 -5 -9 -2 -5 9 4 11 1 17 -9 17 -8 0 -17 7 -20 15 -4 8 -12 15 -20 15 -8 0
-14 5 -14 11 0 5 -4 7 -10 4 -5 -3 -10 -2 -10 2 0 5 -9 14 -21 21 -17 11 -20
11 -14 0 3 -7 0 -5 -8 5 -18 21 -148 109 -154 103 -2 -2 -18 10 -35 26 -17 16
-44 32 -60 35 -15 3 -28 12 -28 20 0 8 -4 11 -10 8 -5 -3 -10 -1 -10 4 0 6 -9
11 -20 11 -11 0 -20 4 -20 9 0 9 -39 27 -52 23 -3 -1 -12 5 -18 13 -7 8 -17
15 -22 15 -5 0 -55 22 -111 49 -56 27 -120 55 -142 62 -22 6 -42 15 -45 19 -4
5 -118 50 -145 57 -5 1 -54 18 -107 36 -54 19 -99 32 -101 30 -3 -2 -24 3 -48
11 -52 18 -175 47 -186 45 -4 -1 -15 1 -23 4 -8 3 -44 11 -80 16 -36 6 -76 13
-90 16 -14 3 -47 8 -75 10 -27 3 -68 8 -90 11 -22 4 -65 8 -95 10 -64 5 -499
12 -502 8z m220 -3615 c-19 -12 -25 -11 -25 5 0 8 8 11 20 8 14 -4 16 -7 5
-13z"/>
</g>
</svg>
